<svg width="50" height="50" viewBox="0 0 50 50" fill="none" xmlns="http://www.w3.org/2000/svg">
<g clip-path="url(#clip0_72_472)">
<path d="M10.4167 28.125H39.5833M25 28.125V50M13.5417 22.9166V13.5416H11.1C9.71256 13.5416 8.36457 14.0033 7.26844 14.8539C6.17231 15.7045 5.39037 16.8956 5.04582 18.2395L1.04166 33.8541V34.375H15.625V37.5C15.625 40.625 15.625 42.7083 17.1875 45.8333C17.1875 45.8333 18.75 48.9583 20.8333 48.9583M36.4583 22.9166V13.5416H38.9C40.2874 13.5416 41.6354 14.0033 42.7315 14.8539C43.8277 15.7045 44.6096 16.8956 44.9542 18.2395L48.9583 33.8541V34.375H34.375V37.5C34.375 40.625 34.375 42.7083 32.8125 45.8333C32.8125 45.8333 31.25 48.9583 29.1667 48.9583M13.2292 9.37496C13.2292 9.37496 9.89582 7.29163 9.89582 4.68746C9.89582 3.72163 10.2795 2.79536 10.9624 2.11241C11.6454 1.42947 12.5717 1.04579 13.5375 1.04579C14.5033 1.04579 15.4296 1.42947 16.1125 2.11241C16.7955 2.79536 17.1792 3.72163 17.1792 4.68746C17.1792 7.29163 13.8542 9.37496 13.8542 9.37496H13.2292ZM36.7708 9.37496C36.7708 9.37496 40.1042 7.29163 40.1042 4.68746C40.1042 3.72052 39.72 2.79319 39.0363 2.10947C38.3526 1.42574 37.4253 1.04163 36.4583 1.04163C34.4458 1.04163 32.8208 2.67496 32.8208 4.68746C32.8208 7.29163 36.1458 9.37496 36.1458 9.37496H36.7708Z" stroke="#323232" stroke-width="4"/>
</g>
<defs>
<clipPath id="clip0_72_472">
<rect width="50" height="50" fill="white"/>
</clipPath>
</defs>
</svg>
