<svg width="50" height="50" viewBox="0 0 50 50" fill="none" xmlns="http://www.w3.org/2000/svg">
<path d="M40.625 31.25C39.5697 31.2542 38.5473 31.618 37.7266 32.2813L34.375 30.3485V27.8391C35.4175 27.4705 36.2962 26.7452 36.8557 25.7915C37.4152 24.8377 37.6195 23.7168 37.4325 22.627C37.2455 21.5372 36.6793 20.5485 35.8338 19.8358C34.9884 19.1231 33.9183 18.7322 32.8125 18.7322C31.7067 18.7322 30.6366 19.1231 29.7912 19.8358C28.9457 20.5485 28.3795 21.5372 28.1925 22.627C28.0055 23.7168 28.2098 24.8377 28.7693 25.7915C29.3288 26.7452 30.2075 27.4705 31.25 27.8391V30.3485L27.8984 32.2844C27.0781 31.62 26.0557 31.2551 25 31.25C24.0206 31.2434 23.0634 31.5417 22.2611 32.1036C21.4589 32.6654 20.8513 33.463 20.5228 34.3857C20.1942 35.3083 20.1609 36.3104 20.4274 37.2529C20.694 38.1953 21.2472 39.0315 22.0103 39.6454C22.7735 40.2593 23.7088 40.6206 24.6864 40.679C25.6641 40.7375 26.6358 40.4902 27.4666 39.9716C28.2975 39.453 28.9464 38.6887 29.3234 37.7847C29.7003 36.8807 29.7866 35.8818 29.5703 34.9266L32.8125 33.0547L36.0547 34.9266C35.846 35.8738 35.9365 36.8625 36.3137 37.7561C36.6909 38.6497 37.3363 39.4042 38.1606 39.9154C38.9849 40.4266 39.9476 40.6693 40.9158 40.61C41.8839 40.5507 42.8098 40.1923 43.5655 39.5844C44.3213 38.9764 44.8697 38.1488 45.1351 37.2158C45.4004 36.2828 45.3696 35.2905 45.0468 34.3758C44.7241 33.4611 44.1254 32.6691 43.3333 32.1092C42.5413 31.5493 41.595 31.2491 40.625 31.25ZM25 37.5C24.691 37.5 24.3889 37.4084 24.1319 37.2367C23.875 37.065 23.6747 36.821 23.5564 36.5355C23.4382 36.25 23.4072 35.9358 23.4675 35.6327C23.5278 35.3296 23.6766 35.0512 23.8951 34.8327C24.1137 34.6142 24.3921 34.4653 24.6952 34.4051C24.9983 34.3448 25.3124 34.3757 25.5979 34.494C25.8834 34.6122 26.1275 34.8125 26.2992 35.0695C26.4709 35.3264 26.5625 35.6285 26.5625 35.9375C26.5625 36.3519 26.3979 36.7494 26.1049 37.0424C25.8118 37.3354 25.4144 37.5 25 37.5ZM32.8125 21.875C33.1215 21.875 33.4236 21.9667 33.6806 22.1384C33.9375 22.3101 34.1378 22.5541 34.2561 22.8396C34.3743 23.1251 34.4053 23.4393 34.345 23.7424C34.2847 24.0455 34.1359 24.3239 33.9174 24.5424C33.6988 24.7609 33.4204 24.9097 33.1173 24.97C32.8142 25.0303 32.5001 24.9994 32.2146 24.8811C31.929 24.7628 31.685 24.5626 31.5133 24.3056C31.3416 24.0487 31.25 23.7466 31.25 23.4375C31.25 23.0231 31.4146 22.6257 31.7076 22.3327C32.0007 22.0397 32.3981 21.875 32.8125 21.875ZM40.625 37.5C40.316 37.5 40.0139 37.4084 39.7569 37.2367C39.5 37.065 39.2997 36.821 39.1814 36.5355C39.0632 36.25 39.0322 35.9358 39.0925 35.6327C39.1528 35.3296 39.3016 35.0512 39.5201 34.8327C39.7387 34.6142 40.0171 34.4653 40.3202 34.4051C40.6233 34.3448 40.9374 34.3757 41.2229 34.494C41.5084 34.6122 41.7525 34.8125 41.9242 35.0695C42.0959 35.3264 42.1875 35.6285 42.1875 35.9375C42.1875 36.3519 42.0229 36.7494 41.7299 37.0424C41.4368 37.3354 41.0394 37.5 40.625 37.5Z" fill="#323232"/>
<path d="M25 48.4375C20.4432 48.4322 16.0747 46.6196 12.8525 43.3975C9.63042 40.1754 7.81788 35.8068 7.8125 31.25V9.97192L24.9797 1.37817L41.3234 9.56099L39.925 12.3547L24.9797 4.87192L10.9375 11.9032V31.25C10.9372 33.8618 11.6642 36.4219 13.0371 38.6437C14.41 40.8655 16.3744 42.661 18.7104 43.8291C21.0463 44.9973 23.6613 45.4918 26.2625 45.2573C28.8637 45.0229 31.3481 44.0686 33.4375 42.5016L35.3125 45C32.3423 47.2408 28.7206 48.448 25 48.4375Z" fill="#323232"/>
</svg>
