<svg width="50" height="50" viewBox="0 0 50 50" fill="none" xmlns="http://www.w3.org/2000/svg">
<path fill-rule="evenodd" clip-rule="evenodd" d="M35.1562 7.81246C34.0578 7.8119 32.9744 8.06872 31.9931 8.56233C31.0118 9.05595 30.1598 9.77262 29.5053 10.6549C28.8509 11.5372 28.4123 12.5605 28.2247 13.6428C28.0371 14.7252 28.1057 15.8364 28.425 16.8875L28.8312 18.2312L27.8406 19.225L8.29687 38.7656C7.90733 39.1551 7.68849 39.6834 7.68849 40.2343C7.68849 40.7852 7.90733 41.3135 8.29687 41.7031C8.6864 42.0926 9.21473 42.3115 9.76562 42.3115C10.3165 42.3115 10.8448 42.0926 11.2344 41.7031L30.775 22.1562L31.7687 21.1625L33.1125 21.5687C34.4181 21.9664 35.8111 21.9755 37.1218 21.595C38.4325 21.2144 39.6041 20.4606 40.4936 19.4256C41.3832 18.3906 41.9524 17.119 42.1316 15.766C42.3109 14.4131 42.0925 13.0372 41.5031 11.8062L36.8156 16.4968C36.5995 16.7208 36.341 16.8995 36.0551 17.0224C35.7692 17.1454 35.4617 17.2102 35.1505 17.213C34.8393 17.2159 34.5306 17.1567 34.2425 17.039C33.9545 16.9213 33.6927 16.7474 33.4725 16.5275C33.2524 16.3075 33.0782 16.0459 32.9602 15.7579C32.8422 15.4699 32.7828 15.1613 32.7854 14.8501C32.7879 14.5389 32.8524 14.2314 32.9751 13.9454C33.0978 13.6593 33.2762 13.4006 33.5 13.1843L38.1875 8.49683C37.2413 8.0435 36.2054 7.81167 35.1562 7.81246ZM23.4375 14.8437C23.4377 12.4409 24.1765 10.0962 25.5539 8.12733C26.9312 6.15845 28.8805 4.66055 31.1376 3.83657C33.3947 3.01258 35.8506 2.90234 38.1724 3.52079C40.4943 4.13923 42.57 5.45647 44.1182 7.29402C45.6664 9.13158 46.6123 11.4006 46.8278 13.7938C47.0433 16.1869 46.5179 18.5884 45.3229 20.673C44.1278 22.7576 42.3209 24.4244 40.1468 25.4477C37.9728 26.471 35.5368 26.8012 33.1687 26.3937L31.4406 28.125L34.375 31.0625L35.8437 29.5937L37.5 27.9375L39.1562 29.5937L45.0156 35.4531C45.6594 36.0774 46.1725 36.8236 46.5252 37.6481C46.8778 38.4726 47.063 39.359 47.0698 40.2558C47.0767 41.1525 46.9051 42.0417 46.5651 42.8715C46.2251 43.7013 45.7234 44.4552 45.0893 45.0893C44.4552 45.7234 43.7013 46.2251 42.8715 46.5651C42.0417 46.9051 41.1525 47.0766 40.2558 47.0698C39.359 47.0629 38.4726 46.8778 37.6481 46.5251C36.8236 46.1725 36.0775 45.6593 35.4531 45.0156L29.5937 39.1562L27.9375 37.5L29.5937 35.8437L31.0625 34.375L28.125 31.4375L14.5469 45.0156C13.9225 45.6593 13.1764 46.1725 12.3519 46.5251C11.5274 46.8778 10.6409 47.0629 9.74419 47.0698C8.84745 47.0766 7.95829 46.9051 7.12848 46.5651C6.29867 46.2251 5.54476 45.7234 4.91065 45.0893C4.27654 44.4552 3.77488 43.7013 3.43487 42.8715C3.09487 42.0417 2.9233 41.1525 2.93016 40.2558C2.93702 39.359 3.12217 38.4726 3.47483 37.6481C3.82749 36.8236 4.34063 36.0774 4.98437 35.4531L18.5594 21.875L10.9375 14.25L9.00937 16.1781L7.42499 13.8L4.29999 9.11246L3.23437 7.51246L4.59374 6.15621L6.15624 4.59371L7.51249 3.23433L9.11249 4.29996L13.8 7.42496L16.1781 9.00933L14.2531 10.9375L21.875 18.5625L23.6062 16.8312C23.4939 16.1747 23.4374 15.5098 23.4375 14.8437ZM37.5 34.5625L41.7031 38.7656C42.0927 39.1551 42.3115 39.6834 42.3115 40.2343C42.3115 40.7852 42.0927 41.3135 41.7031 41.7031C41.3136 42.0926 40.7853 42.3115 40.2344 42.3115C39.6835 42.3115 39.1552 42.0926 38.7656 41.7031L34.5656 37.5L37.5 34.5625Z" fill="#323232"/>
</svg>
