<svg width="50" height="50" viewBox="0 0 50 50" fill="none" xmlns="http://www.w3.org/2000/svg">
<path d="M11.6146 4.32085C11.8798 4.44839 12.1036 4.64824 12.2603 4.89739C12.4169 5.14655 12.5 5.43488 12.5 5.72919C12.5 7.45835 13.15 8.45419 13.9646 9.66669L14.025 9.75419C14.7167 10.7834 15.625 12.1313 15.625 14.0625C15.625 16.0334 14.6312 17.7709 13.1167 18.8021C13.5146 19.1354 13.8667 19.5459 14.1708 20.0375C15.1625 21.6417 15.625 24.0938 15.625 27.6146C15.625 31.1813 15.1458 35.4646 14.3646 38.8854C13.9771 40.5854 13.4958 42.1542 12.9229 43.3313C12.6524 43.9169 12.2941 44.4579 11.8604 44.9354C11.4312 45.375 10.7708 45.8438 9.89582 45.8438C9.02082 45.8438 8.36041 45.375 7.93333 44.9354C7.49835 44.4589 7.13992 43.9177 6.87083 43.3313C6.29583 42.1521 5.81458 40.5854 5.42708 38.8834C4.61446 35.1807 4.19202 31.4032 4.16666 27.6125C4.16666 24.0917 4.62916 21.6417 5.62083 20.0375C5.90374 19.5719 6.25967 19.1548 6.67499 18.8021C5.9016 18.277 5.26861 17.5705 4.83135 16.7443C4.39409 15.9181 4.16588 14.9973 4.16666 14.0625C4.16666 13.2959 4.16666 11.9771 4.96457 10.275C5.74582 8.60835 7.23124 6.69377 9.96041 4.50835C10.1904 4.32436 10.4678 4.20913 10.7604 4.17596C11.0531 4.14278 11.3492 4.19301 11.6146 4.32085ZM7.29166 14.0604C7.29166 14.7511 7.56603 15.4156 8.0544 15.9039C8.54278 16.3923 9.20516 16.6667 9.89582 16.6667C10.5865 16.6667 11.2489 16.3923 11.7372 15.9039C12.2256 15.4156 12.5 14.7532 12.5 14.0625C12.5 13.1479 12.1146 12.5146 11.3708 11.4084L11.3458 11.3709C10.8687 10.6625 10.3042 9.82294 9.90416 8.74585C8.77291 9.89585 8.14791 10.85 7.79583 11.6C7.29166 12.675 7.29166 13.4417 7.29166 14.0604ZM8.27916 21.6771C7.76249 22.5146 7.29166 24.2313 7.29166 27.6125C7.29166 30.9479 7.74582 34.9979 8.47291 38.1875C8.83957 39.7917 9.25624 41.0938 9.67916 41.9604C9.75624 42.1209 9.82916 42.2542 9.89582 42.3667C9.96249 42.2542 10.0354 42.1209 10.1125 41.9604C10.5354 41.0938 10.9521 39.7896 11.3187 38.1875C12.0479 35 12.5 30.95 12.5 27.6125C12.5 24.2313 12.0292 22.5146 11.5125 21.6771C11.3567 21.3952 11.1212 21.1654 10.8354 21.0167C10.5395 20.8878 10.2182 20.828 9.89582 20.8417C9.47916 20.8417 9.18124 20.9063 8.95624 21.0167C8.6705 21.1654 8.43498 21.3952 8.27916 21.6771ZM20.8333 31.0792C19.7296 30.8941 18.656 30.5605 17.6417 30.0875C17.7026 28.9059 17.72 27.7225 17.6937 26.5396C18.6333 27.1709 19.6937 27.6354 20.8333 27.8938V21.875C20.8333 21.0462 21.1626 20.2514 21.7486 19.6653C22.3347 19.0793 23.1295 18.75 23.9583 18.75H32.2917C32.2916 17.0015 31.8025 15.2878 30.8796 13.8026C29.9568 12.3174 28.6369 11.1199 27.0693 10.3454C25.5016 9.57088 23.7486 9.25022 22.0082 9.41965C20.2679 9.58908 18.6097 10.2418 17.2208 11.3042C16.8042 10.1521 16.2104 9.27085 15.7979 8.65835L15.7146 8.53335C17.5864 7.21387 19.7847 6.43395 22.0695 6.27874C24.3544 6.12354 26.6379 6.59901 28.671 7.65325C30.704 8.70749 32.4083 10.3 33.5979 12.2569C34.7875 14.2138 35.4167 16.4599 35.4167 18.75H42.7083C43.5371 18.75 44.332 19.0793 44.918 19.6653C45.5041 20.2514 45.8333 21.0462 45.8333 21.875V40.625C45.8333 41.4538 45.5041 42.2487 44.918 42.8347C44.332 43.4208 43.5371 43.75 42.7083 43.75H23.9583C23.1295 43.75 22.3347 43.4208 21.7486 42.8347C21.1626 42.2487 20.8333 41.4538 20.8333 40.625V31.0792ZM23.9583 31.2104V40.6271H42.7083V21.8771H35.0208C34.3717 24.3876 32.9585 26.6342 30.9766 28.3063C28.9948 29.9784 26.5422 30.9933 23.9583 31.2104ZM31.7583 21.8771H23.9583V28.0709C25.7087 27.8746 27.3686 27.1896 28.7479 26.0943C30.1273 24.999 31.1706 23.5375 31.7583 21.8771Z" fill="#323232"/>
</svg>
